# xmcd
#
# Track frame offsets:
#	182
#	19410
#	42025
#	60242
#	68650
#	83215
#	125242
#	135650
#	162172
#
# Disc length: 2376 seconds
#
# Revision: 4
# Processed by: cddbd v1.5.2PL0 Copyright (c) Steve Scherf et al.
# Submitted via: audiograbber 1.83.01
#
DISCID=73094609
DTITLE=JAMES BROWN - Live - CD2
DYEAR=1992
DGENRE=Funk
TTITLE0=Turn It Loose (Give It Up)
TTITLE1=It's Too Funky In Here
TTITLE2=Gonna Have A Funky Good Time (Doing It To Death)
TTITLE3=Try Me
TTITLE4=Get On The Good Foot
TTITLE5=Prisioner Of Love
TTITLE6=Get Up Off That Thing
TTITLE7=Georgia On My Mind
TTITLE8=I Got The Feeling
EXTD=
EXTT0=
EXTT1=
EXTT2=
EXTT3=
EXTT4=
EXTT5=
EXTT6=
EXTT7=
EXTT8=
PLAYORDER=
